<svg width="28" height="28" viewBox="0 0 28 28" fill="none" xmlns="http://www.w3.org/2000/svg">
<path d="M27.5 14C27.5 21.4558 21.4558 27.5 14 27.5C6.54416 27.5 0.5 21.4558 0.5 14C0.5 6.54415 6.54416 0.5 14 0.5C21.4558 0.5 27.5 6.54415 27.5 14Z" stroke="white"/>
<path d="M16.539 15.2541L16.9029 12.9199H14.6343V11.3996C14.6343 10.7652 14.9497 10.1427 15.9688 10.1427H17V8.15562C17 8.15562 16.0659 8 15.1681 8C13.2998 8 12.0745 9.11326 12.0745 11.1483V12.9319H10V15.2661H12.0745V20.9042C12.487 20.9641 12.9237 21 13.3484 21C13.773 21 14.2097 20.9641 14.6222 20.9042V15.2541H16.539Z" fill="white"/>
</svg>
