<svg width="27" height="27" viewBox="0 0 27 27" fill="none" xmlns="http://www.w3.org/2000/svg">
<path d="M26.5 13.5C26.5 20.6797 20.6797 26.5 13.5 26.5C6.3203 26.5 0.5 20.6797 0.5 13.5C0.5 6.3203 6.3203 0.5 13.5 0.5C20.6797 0.5 26.5 6.3203 26.5 13.5Z" stroke="white"/>
<path d="M13.533 12.2177C13.6707 12.0675 13.7834 11.9048 13.9336 11.7671C14.3716 11.3541 14.8848 11.1413 15.4981 11.1538C15.836 11.1538 16.1614 11.1789 16.4743 11.279C17.2128 11.4918 17.6383 11.9924 17.8386 12.7184C17.9888 13.2565 18.0138 13.8073 18.0263 14.358C18.0263 15.522 18.0263 16.686 18.0263 17.8625C18.0263 17.9751 18.0013 18.0002 17.8886 18.0002C17.2879 18.0002 16.6871 18.0002 16.0863 18.0002C15.9862 18.0002 15.9612 17.9626 15.9612 17.8625C15.9612 16.7485 15.9612 15.6471 15.9612 14.5332C15.9612 14.2578 15.9486 13.9825 15.861 13.7071C15.7234 13.2065 15.3604 12.9562 14.8347 12.9812C14.1213 13.0187 13.7458 13.3692 13.6582 14.0951C13.6332 14.2704 13.6206 14.4456 13.6206 14.6208C13.6206 15.6972 13.6206 16.7861 13.6206 17.8625C13.6206 17.9751 13.5956 18.0002 13.483 18.0002C12.8822 18.0002 12.2689 18.0002 11.6681 18.0002C11.568 18.0002 11.543 17.9751 11.543 17.875C11.543 15.7347 11.543 13.5945 11.543 11.4542C11.543 11.3541 11.5805 11.3291 11.6807 11.3291C12.2564 11.3291 12.8321 11.3291 13.4079 11.3291C13.508 11.3291 13.5455 11.3666 13.533 11.4667C13.533 11.7046 13.533 11.9549 13.533 12.2177Z" fill="white"/>
<path d="M10.2417 14.6582C10.2417 15.7221 10.2417 16.7734 10.2417 17.8373C10.2417 17.9499 10.2167 17.9875 10.0915 17.9875C9.49077 17.975 8.89 17.9875 8.28922 17.9875C8.18909 17.9875 8.16406 17.9625 8.16406 17.8623C8.16406 15.7221 8.16406 13.5818 8.16406 11.4416C8.16406 11.354 8.1891 11.3164 8.27671 11.3164C8.89 11.3164 9.49077 11.3164 10.1041 11.3164C10.2167 11.3164 10.2417 11.3665 10.2417 11.4666C10.2417 12.5305 10.2417 13.5943 10.2417 14.6582Z" fill="white"/>
<path d="M10.4031 9.18903C10.4031 9.85238 9.8649 10.3906 9.20154 10.3906C8.55071 10.3906 8 9.85239 8 9.20155C8 8.53819 8.53819 8 9.20154 8C9.8649 8 10.4031 8.53819 10.4031 9.18903Z" fill="white"/>
</svg>
