<svg width="27" height="27" viewBox="0 0 27 27" fill="none" xmlns="http://www.w3.org/2000/svg">
<path d="M26.5 13.5C26.5 20.6797 20.6797 26.5 13.5 26.5C6.32029 26.5 0.5 20.6797 0.5 13.5C0.5 6.3203 6.32029 0.5 13.5 0.5C20.6797 0.5 26.5 6.3203 26.5 13.5Z" stroke="white"/>
<path d="M10.8732 18C15.5211 18 18.0563 14.1549 18.0563 10.8169C18.0563 10.7042 18.0563 10.6056 18.0423 10.493C18.5352 10.1408 18.9577 9.69014 19.2958 9.1831C18.8451 9.38028 18.3521 9.52113 17.8451 9.57746C18.3662 9.2676 18.7606 8.77465 18.9577 8.1831C18.4648 8.47887 17.9296 8.67606 17.3521 8.80282C16.8873 8.30986 16.2394 8 15.507 8C14.1127 8 12.9859 9.12676 12.9859 10.5211C12.9859 10.7183 13.0141 10.9155 13.0563 11.0986C10.9577 11 9.09859 9.98592 7.85916 8.46479C7.64789 8.83099 7.52113 9.26761 7.52113 9.73239C7.52113 10.6056 7.97183 11.3803 8.64789 11.831C8.23944 11.8169 7.84507 11.7042 7.50704 11.5211C7.50704 11.5352 7.50704 11.5352 7.50704 11.5493C7.50704 12.7746 8.38028 13.7887 9.53521 14.0282C9.32394 14.0845 9.09859 14.1127 8.87324 14.1127C8.70422 14.1127 8.54929 14.0986 8.39436 14.0704C8.71831 15.0704 9.64789 15.8028 10.7465 15.8169C9.88732 16.493 8.78873 16.9014 7.60563 16.9014C7.40845 16.9014 7.19718 16.8873 7 16.8732C8.11268 17.5775 9.43662 18 10.8732 18Z" fill="white"/>
</svg>
