<svg width="27" height="27" viewBox="0 0 27 27" fill="none" xmlns="http://www.w3.org/2000/svg">
<path d="M26.5 13.5C26.5 20.6797 20.6797 26.5 13.5 26.5C6.3203 26.5 0.5 20.6797 0.5 13.5C0.5 6.3203 6.3203 0.5 13.5 0.5C20.6797 0.5 26.5 6.3203 26.5 13.5Z" stroke="white"/>
<path d="M19.9715 9.56646C19.8133 8.94937 19.3228 8.47469 18.7057 8.30063C17.5981 8 13.1361 8 13.1361 8C13.1361 8 8.68988 8 7.56646 8.30063C6.94937 8.45886 6.47469 8.94937 6.30064 9.56646C6 10.6741 6 13 6 13C6 13 6 15.3101 6.30064 16.4335C6.45886 17.0506 6.94937 17.5253 7.56646 17.6994C8.67405 18 13.1361 18 13.1361 18C13.1361 18 17.5823 18 18.7057 17.6994C19.3228 17.5411 19.7975 17.0506 19.9715 16.4335C20.2722 15.326 20.2722 13 20.2722 13C20.2722 13 20.2722 10.6741 19.9715 9.56646ZM11.7279 15.1361V10.8639L15.4304 13L11.7279 15.1361Z" fill="white"/>
</svg>
